HIERARCHY
ROOT root
{
	OFFSET	0	13.1	24.9
	CHANNELS 6  Xposition Yposition Zposition Xrotation Yrotation Zrotation
	JOINT spine_1
	{
		OFFSET	0	9.99999	0
		CHANNELS 3  Xrotation Yrotation Zrotation
		JOINT spine_2
		{
			OFFSET	0	112	-10
			CHANNELS 3  Xrotation Yrotation Zrotation
			JOINT spine_3
			{
				OFFSET	0	206.5	19.3
				CHANNELS 3  Xrotation Yrotation Zrotation
				JOINT spine_4
				{
					OFFSET	0	110.4	14.6
					CHANNELS 3  Xrotation Yrotation Zrotation
					JOINT neck_1
					{
						OFFSET	0	71.8	-50.3
						CHANNELS 3  Xrotation Yrotation Zrotation
						JOINT neck_2
						{
							OFFSET	0	86.2	-25.8
							CHANNELS 3  Xrotation Yrotation Zrotation
							JOINT head_ee
							{
								OFFSET	0	179.8	-8.7
								CHANNELS 3  Xrotation Yrotation Zrotation
								End Site
								{
									OFFSET	1	0	0
								}
							}
						}
					}
					JOINT left_clavicle
					{
						OFFSET	-43.2	22.4	-70.8
						CHANNELS 3  Xrotation Yrotation Zrotation
						JOINT left_shoulder
						{
							OFFSET	-93.9	-5.79999	48.7
							CHANNELS 3  Xrotation Yrotation Zrotation
							JOINT left_elbow
							{
								OFFSET	-291.4	-30.8	15.2
								CHANNELS 3  Xrotation Yrotation Zrotation
								JOINT left_lowarm_twist
								{
									OFFSET	-110.7	-3.89999	13.6
									CHANNELS 3  Xrotation Yrotation Zrotation
									JOINT left_hand
									{
										OFFSET	-110.7	-3.89999	13.6
										CHANNELS 3  Xrotation Yrotation Zrotation
										JOINT left_ee
										{
											OFFSET	-80.8	-5.10001	12.1
											CHANNELS 3  Xrotation Yrotation Zrotation
											End Site
											{
												OFFSET	1	0	0
											}
										}
									}
								}
							}
						}
					}
					JOINT right_clavicle
					{
						OFFSET	43.2	22.4	-70.8
						CHANNELS 3  Xrotation Yrotation Zrotation
						JOINT right_shoulder
						{
							OFFSET	93.9	-5.79999	48.7
							CHANNELS 3  Xrotation Yrotation Zrotation
							JOINT right_elbow
							{
								OFFSET	291.4	-30.8	15.2
								CHANNELS 3  Xrotation Yrotation Zrotation
								JOINT right_lowarm_twist
								{
									OFFSET	110.7	-3.89999	13.6
									CHANNELS 3  Xrotation Yrotation Zrotation
									JOINT right_hand
									{
										OFFSET	110.7	-3.89999	13.6
										CHANNELS 3  Xrotation Yrotation Zrotation
										JOINT right_ee
										{
											OFFSET	80.8	-5.10001	12.1
											CHANNELS 3  Xrotation Yrotation Zrotation
											End Site
											{
												OFFSET	1	0	0
											}
										}
									}
								}
							}
						}
					}
				}
			}
		}
	}
	JOINT left_hip
	{
		OFFSET	-82.8	-127.5	0.300001
		CHANNELS 3  Xrotation Yrotation Zrotation
		JOINT left_knee
		{
			OFFSET	-28.2	-396.7	2.2
			CHANNELS 3  Xrotation Yrotation Zrotation
			JOINT left_ankle
			{
				OFFSET	-11.7	-411.3	35.4
				CHANNELS 3  Xrotation Yrotation Zrotation
				JOINT left_toes
				{
					OFFSET	0	-60	-88.6
					CHANNELS 3  Xrotation Yrotation Zrotation
					JOINT left_foot_ee
					{
						OFFSET	-22.5	-16.5	-42.2
						CHANNELS 3  Xrotation Yrotation Zrotation
						End Site
						{
							OFFSET	1	0	0
						}
					}
				}
			}
		}
	}
	JOINT right_hip
	{
		OFFSET	82.8	-127.5	0.300001
		CHANNELS 3  Xrotation Yrotation Zrotation
		JOINT right_knee
		{
			OFFSET	28.2	-396.7	2.2
			CHANNELS 3  Xrotation Yrotation Zrotation
			JOINT right_ankle
			{
				OFFSET	11.7	-411.3	35.4
				CHANNELS 3  Xrotation Yrotation Zrotation
				JOINT right_toes
				{
					OFFSET	0	-60	-88.6
					CHANNELS 3  Xrotation Yrotation Zrotation
					JOINT right_foot_ee
					{
						OFFSET	22.5	-16.5	-42.2
						CHANNELS 3  Xrotation Yrotation Zrotation
						End Site
						{
							OFFSET	1	0	0
						}
					}
				}
			}
		}
	}
}
MOTION
Frames: 11
Frame Time: 0.02
244.707 640.653 -1640.71 -165.906 -67.7233 -165.4 2.90868 -0.306543 -2.40816 2.91189 -0.152731 -2.42277 2.91744 0.237327 -2.41596 2.90932 -0.147091 -2.42312 -17.3567 -9.96201 -2.94018 -17.6854 -17.5234 -6.51713 -0.0 0.0 -0.0 11.9791 -17.3541 24.0484 -23.402 -3.8071 70.3302 0.385769 -10.8189 0.0365302 -29.8938 -1.94597 3.2445 3.51051 -28.3708 10.4157 -0.0 0.0 -0.0 5.66556 -1.14699 -10.9845 -10.5729 -11.3846 -55.6729 1.01797 26.7599 -0.242144 62.6197 2.01263 7.34422 3.51908 -5.48237 -26.3524 0.0 0.0 0.0 25.5769 -43.8919 13.2997 -25.841 0.180768 3.92793 41.8409 25.1411 -5.34602 38.6856 -0.0 -0.0 -0.0 0.0 -0.0 0.65491 -29.3759 -1.49552 3.54273 0.162018 0.519353 40.3807 -0.911882 4.90246 40.1056 -0.0 -0.0 0.0 0.0 0.0 
246.2 627.598 -1642.37 -165.995 -68.4489 -165.357 2.82845 -0.294869 -2.41055 2.83167 -0.140928 -2.42442 2.83679 0.252654 -2.41534 2.82867 -0.131858 -2.42493 -16.7237 -10.0005 -2.80754 -17.0362 -17.6195 -6.30232 -0.0 0.0 -0.0 11.8436 -18.8052 23.6553 -24.4442 -3.51789 70.96 0.368263 -10.3388 0.0333162 -29.8182 -1.93902 3.23775 3.59513 -28.4296 10.927 -0.0 0.0 -0.0 5.63907 0.818403 -10.8904 -10.3724 -11.4443 -55.6093 1.0377 27.2045 -0.251095 64.8462 2.22385 7.53634 3.53549 -5.21625 -26.3771 0.0 0.0 0.0 26.1111 -45.1115 14.0346 -25.6795 0.185161 3.90353 42.2224 24.6915 -5.36567 39.31 -0.0 -0.0 -0.0 0.0 -0.0 0.657498 -29.3768 -1.49716 3.54118 0.161941 0.519129 40.3909 -2.22357 4.89681 40.1288 -0.0 -0.0 0.0 0.0 0.0 
244.149 628.197 -1642.79 -166.235 -70.4884 -165.414 2.63758 0.148446 -2.50977 2.64103 0.307798 -2.49525 2.6267 0.716178 -2.41005 2.61874 0.326693 -2.49285 -15.8671 -7.97305 -3.20971 -16.0106 -13.4257 -5.79684 -0.0 0.0 -0.0 11.7788 -18.6934 23.514 -23.8036 -5.48604 69.5385 0.374019 -10.4968 0.0343572 -25.0279 -1.51711 2.7918 2.63742 -19.1298 9.42175 -0.0 0.0 -0.0 5.4094 8.87031 -10.1049 -8.05919 -5.77658 -54.9313 0.464191 12.9501 -0.0526834 59.6079 1.73915 7.07164 3.06383 -9.41615 -24.4104 0.0 0.0 0.0 23.3655 -47.7313 10.9824 -24.417 0.217118 3.71243 41.9544 22.273 -5.26584 40.1711 -0.0 -0.0 -0.0 0.0 -0.0 1.1632 -26.9291 -1.59949 -1.97373 -0.0762207 -0.293296 41.7294 -16.8579 5.1171 36.8132 -0.0 -0.0 0.0 0.0 0.0 
250.948 631.227 -1638.61 -168.452 -70.7723 -166.83 2.55226 0.150775 -2.76769 2.55646 0.326517 -2.75251 2.53974 0.78133 -2.65948 2.53004 0.351678 -2.74941 -16.3418 -8.05752 -3.30139 -16.4972 -13.5763 -5.97332 -0.0 0.0 -0.0 11.6077 -18.2394 23.1504 -23.7757 -5.86562 69.5684 0.407698 -11.4182 0.0407592 -24.4403 -1.46798 2.73474 2.4767 -13.7354 10.8735 -0.0 0.0 -0.0 5.053 8.29427 -9.3972 -7.655 -6.48236 -55.3499 0.520413 14.4561 -0.0660029 53.4442 1.22627 6.47143 3.03069 -8.14486 -23.7433 0.0 0.0 0.0 25.228 -47.2744 11.7051 -22.9446 0.249059 3.48874 42.4661 24.4808 -5.38069 39.9996 -0.0 -0.0 -0.0 0.0 -0.0 1.16079 -23.4229 -1.79096 -5.89029 -0.197317 -0.882055 42.1307 -18.5938 5.18777 37.0599 -0.0 -0.0 0.0 0.0 0.0 
253.737 628.524 -1634.74 -168.039 -70.5137 -165.039 2.55614 0.128029 -2.92644 2.56085 0.313907 -2.91238 2.54375 0.795432 -2.81926 2.53282 0.340399 -2.90941 -16.3539 -9.20042 -2.96807 -16.5904 -15.9614 -6.08824 -0.0 0.0 -0.0 11.4374 -18.2291 22.7631 -24.2483 -5.708 70.3981 0.433045 -12.1077 0.0459266 -23.5386 -1.39374 2.6462 2.50112 -9.81458 12.815 -0.0 0.0 -0.0 4.54391 7.47503 -8.39539 -6.42255 -7.29978 -55.8 0.63973 17.5837 -0.0989432 46.6756 0.741229 5.75378 3.08553 -7.90347 -24.0525 0.0 0.0 0.0 27.0689 -46.3177 13.9839 -22.1817 0.263343 3.37256 42.3475 25.4596 -5.40367 40.0805 -0.0 -0.0 -0.0 0.0 -0.0 1.49124 -18.4778 -2.94834 -9.48155 -0.272753 -1.4279 42.4018 -21.5834 5.28619 37.8243 -0.0 -0.0 0.0 0.0 0.0 
254.431 627.218 -1632.33 -167.47 -72.3692 -164.969 2.49753 0.105373 -2.9795 2.50242 0.294668 -2.96677 2.48605 0.788434 -2.87531 2.47466 0.324649 -2.96365 -16.3556 -10.8862 -2.44253 -16.7378 -19.4967 -6.24017 -0.0 0.0 -0.0 11.2803 -18.1006 22.4137 -24.9131 -5.536 71.7725 0.469477 -13.0925 0.0538743 -22.4793 -1.30832 2.54073 2.55724 -4.39559 15.5534 -0.0 0.0 -0.0 3.8385 6.28198 -7.02948 -4.59767 -8.50097 -56.4204 0.818149 22.0619 -0.159494 37.3149 0.217022 4.67862 3.16441 -7.53609 -24.4922 0.0 0.0 0.0 26.4417 -45.2353 13.7705 -21.1439 0.280288 3.21421 42.1745 26.854 -5.43912 40.1965 -0.0 -0.0 -0.0 0.0 -0.0 3.19458 -11.5285 -3.13844 -14.1046 -0.319274 -2.13553 42.809 -25.89 5.46126 38.9053 -0.0 -0.0 0.0 0.0 0.0 
265.014 624.473 -1625.78 -166.306 -74.5195 -163.785 2.44909 0.0608695 -3.13574 2.45452 0.260183 -3.12553 2.43919 0.783595 -3.03696 2.42644 0.294376 -3.1225 -16.2668 -12.5786 -0.240163 -16.888 -23.9858 -4.85111 -0.0 0.0 -0.0 10.9582 -18.8093 21.6405 -25.0956 -5.30346 71.7538 0.518918 -14.4163 0.0656303 -21.1851 -1.20664 2.40978 2.72803 -0.487885 18.3619 -0.0 0.0 -0.0 2.9607 4.18556 -5.40798 -2.26517 -10.3617 -57.453 1.0324 27.0854 -0.248677 26.9271 -0.151062 3.40491 3.25824 -6.64302 -24.8579 0.0 0.0 0.0 25.659 -43.6928 13.5007 -19.6549 0.299585 2.98656 42.4426 27.0982 -5.47345 40.1863 -0.0 -0.0 -0.0 0.0 -0.0 3.42398 -8.89279 -3.23801 -16.929 -0.319559 -2.56883 43.2224 -26.4291 5.51892 40.2195 -0.0 -0.0 0.0 0.0 0.0 
274.25 617.841 -1623.88 -162.284 -75.7618 -159.84 2.40246 0.0466096 -2.98522 2.40739 0.236387 -2.97622 2.39414 0.737144 -2.89323 2.38256 0.271174 -2.97325 -15.3544 -13.7335 2.87424 -16.115 -27.9559 -2.19408 -0.0 0.0 -0.0 10.8048 -19.6815 21.2355 -24.9776 -5.02157 72.0987 0.596551 -16.4633 0.0863015 -19.3361 -1.06658 2.21882 2.39228 4.84571 18.07 -0.0 0.0 -0.0 2.42963 0.98589 -4.60456 -3.3269 -12.5778 -58.1643 1.42508 35.2179 -0.452328 17.0029 -0.282574 2.14564 3.74471 -5.91047 -28.1862 0.0 0.0 0.0 23.8085 -39.4777 11.8732 -17.5582 0.316713 2.66533 41.8195 23.9354 -5.30409 38.6153 -0.0 -0.0 -0.0 0.0 -0.0 3.51928 -7.91111 -3.40459 -18.0618 -0.313672 -2.74254 42.8461 -25.7555 5.45969 40.1149 -0.0 -0.0 0.0 0.0 0.0 
278.467 616.845 -1621.6 -156.686 -77.9982 -154.873 2.33622 0.0543284 -2.76645 2.34045 0.230187 -2.7574 2.3286 0.696946 -2.67783 2.31869 0.265455 -2.75423 -12.7773 -12.5122 4.63569 -13.1903 -26.6859 0.602476 -0.0 0.0 -0.0 10.826 -20.7723 21.2038 -24.7919 -5.0225 72.173 0.651391 -17.8839 0.102495 -18.2738 -0.988934 2.10713 1.79169 9.90436 15.8058 -0.0 0.0 -0.0 2.20156 -0.24626 -4.26098 -3.73171 -13.7014 -58.5609 1.5982 38.3659 -0.556051 9.34872 -0.234386 1.16989 3.90515 -3.17058 -28.3823 0.0 0.0 0.0 21.3013 -33.6317 10.2559 -15.8653 0.321959 2.40565 41.3665 15.7858 -5.06619 36.955 -0.0 -0.0 -0.0 0.0 -0.0 3.89586 -8.54535 -3.46713 -19.2931 -0.303379 -2.93118 42.4029 -25.2085 5.39989 35.6438 -0.0 -0.0 0.0 0.0 0.0 
283.551 616.732 -1620.86 -150.353 -79.7369 -148.315 2.25573 -0.0108569 -2.93978 2.26052 0.176149 -2.93452 2.25076 0.677791 -2.86067 2.23941 0.2177 -2.93174 -11.0937 -10.1773 5.64929 -11.2297 -22.9356 2.70297 -0.0 0.0 -0.0 10.8636 -21.3431 21.2441 -24.5959 -5.0973 72.1874 0.703872 -19.2225 0.119195 -16.7457 -0.880917 1.94399 1.35204 13.5645 14.1919 -0.0 0.0 -0.0 2.65182 -2.32477 -5.27454 -4.94844 -14.0136 -59.6091 1.85601 42.5916 -0.723527 -0.474412 0.0169572 -0.0582133 3.81451 -0.00367923 -26.4471 0.0 0.0 0.0 18.8308 -25.2354 8.65865 -13.5717 0.316825 2.05381 40.6339 5.81476 -4.91286 35.4176 -0.0 -0.0 -0.0 0.0 -0.0 4.33102 -9.46333 -3.42522 -20.8827 -0.284102 -3.1743 42.84 -25.4823 5.44925 29.2803 -0.0 -0.0 0.0 0.0 0.0 
292.513 617.835 -1618.02 -142.046 -81.399 -140.11 2.12175 -0.0774876 -2.98137 2.12669 0.112296 -2.98026 2.12029 0.62933 -2.91528 2.10847 0.161232 -2.97802 -10.9825 -8.27228 5.28406 -11.0509 -19.1048 2.90521 -0.0 0.0 -0.0 11.126 -21.9761 21.7866 -23.6094 -5.17523 71.6141 0.718106 -19.5819 0.123923 -14.5581 -0.733979 1.70564 1.11968 14.495 13.0194 -0.0 0.0 -0.0 2.43262 -2.64033 -4.88392 -6.44547 -13.9276 -59.7597 2.07163 45.7361 -0.873809 -7.5958 0.328727 -0.913005 3.77759 3.50127 -24.6987 0.0 0.0 0.0 17.3354 -17.3518 6.99214 -12.7779 0.311769 1.93212 40.4167 -3.22466 -4.94301 34.3342 -0.0 -0.0 -0.0 0.0 -0.0 4.94093 -10.7556 -3.36715 -23.152 -0.244907 -3.52031 42.6948 -25.592 5.44004 22.876 -0.0 -0.0 0.0 0.0 0.0 
